<?xml version="1.0" standalone="no"?>
<!DOCTYPE svg PUBLIC "-//W3C//DTD SVG 20010904//EN"
 "http://www.w3.org/TR/2001/REC-SVG-20010904/DTD/svg10.dtd">
<svg version="1.0" xmlns="http://www.w3.org/2000/svg"
 width="360.000000pt" height="360.000000pt" viewBox="0 0 360.000000 360.000000"
 preserveAspectRatio="xMidYMid meet">
<metadata>
Created by potrace 1.11, written by Peter Selinger 2001-2013
</metadata>
<g transform="translate(0.000000,360.000000) scale(0.100000,-0.100000)"
fill="#000000" stroke="none">
<path d="M2475 2744 c-244 -37 -409 -150 -470 -324 -62 -176 -26 -366 90 -481
l42 -42 -35 -31 c-84 -73 -144 -166 -175 -272 -19 -64 -20 -216 -2 -284 51
-195 200 -343 405 -404 83 -25 142 -31 285 -30 102 0 147 5 210 22 200 55 333
165 400 330 27 66 33 99 42 202 11 146 -43 286 -154 400 -35 35 -63 65 -63 66
0 1 18 21 40 45 159 172 151 467 -19 639 -62 62 -165 119 -266 145 -59 16
-272 28 -330 19z m208 -359 c97 -14 157 -74 157 -155 0 -91 -95 -160 -226
-166 -167 -7 -276 61 -276 172 0 31 7 56 20 73 18 25 120 84 131 76 4 -1 24 0
46 4 40 7 77 6 148 -4z m17 -686 c145 -31 233 -168 198 -306 -18 -75 -107
-142 -208 -158 -53 -9 -158 -9 -197 -1 -15 4 -39 8 -51 11 -37 7 -105 50 -128
82 -95 130 -27 310 139 362 70 22 171 26 247 10z"/>
<path d="M371 2714 c-40 -17 -51 -53 -51 -170 0 -105 8 -137 39 -161 12 -9
166 -12 646 -13 347 0 639 3 651 6 40 11 54 53 54 169 0 116 -13 158 -52 171
-38 13 -1256 11 -1287 -2z"/>
<path d="M374 1980 c-46 -18 -54 -46 -54 -178 0 -123 0 -124 28 -151 l29 -26
586 0 587 0 27 27 c26 26 27 31 27 147 1 132 -9 164 -54 180 -35 12 -1146 13
-1176 1z"/>
<path d="M359 1227 c-32 -24 -39 -56 -39 -170 0 -107 1 -116 25 -141 13 -14
30 -26 37 -27 73 -6 1250 -3 1270 4 48 15 58 45 58 167 0 111 -7 143 -39 167
-23 18 -1289 18 -1312 0z"/>
</g>
</svg>
